<svg width="96" height="28" viewBox="0 0 96 28" fill="none" xmlns="http://www.w3.org/2000/svg">
<circle cx="14" cy="14" r="13.5" stroke="#C4C4C4"/>
<path d="M20 9.00548C19.4777 9.37393 18.8993 9.65573 18.2873 9.84003C17.9588 9.46231 17.5222 9.19459 17.0366 9.07308C16.5509 8.95157 16.0397 8.98214 15.572 9.16064C15.1044 9.33915 14.7028 9.65698 14.4216 10.0711C14.1405 10.4853 13.9933 10.9758 14 11.4764V12.0218C13.0414 12.0467 12.0916 11.8341 11.2351 11.403C10.3786 10.9719 9.64199 10.3356 9.09091 9.55094C9.09091 9.55094 6.90909 14.46 11.8182 16.6418C10.6948 17.4044 9.35663 17.7867 8 17.7328C12.9091 20.46 18.9091 17.7328 18.9091 11.46C18.9086 11.3081 18.894 11.1565 18.8655 11.0073C19.4221 10.4583 19.815 9.76515 20 9.00548Z" fill="#545454"/>
<circle cx="48" cy="14" r="13.5" stroke="#C4C4C4"/>
<g clip-path="url(#clip0_48_27)">
<path d="M51.05 8H49.4C48.6707 8 47.9712 8.28973 47.4555 8.80546C46.9397 9.32118 46.65 10.0207 46.65 10.75V12.4H45V14.6H46.65V19H48.85V14.6H50.5L51.05 12.4H48.85V10.75C48.85 10.6041 48.9079 10.4642 49.0111 10.3611C49.1142 10.2579 49.2541 10.2 49.4 10.2H51.05V8Z" fill="#545454"/>
</g>
<circle cx="82" cy="14" r="13.5" stroke="#C4C4C4"/>
<g clip-path="url(#clip1_48_27)">
<path d="M83.6315 11.8421C84.3853 11.8421 85.1082 12.1415 85.6412 12.6745C86.1742 13.2075 86.4736 13.9304 86.4736 14.6842V18H84.5789V14.6842C84.5789 14.433 84.4791 14.192 84.3014 14.0143C84.1238 13.8367 83.8828 13.7368 83.6315 13.7368C83.3803 13.7368 83.1393 13.8367 82.9616 14.0143C82.784 14.192 82.6842 14.433 82.6842 14.6842V18H80.7894V14.6842C80.7894 13.9304 81.0889 13.2075 81.6219 12.6745C82.1549 12.1415 82.8778 11.8421 83.6315 11.8421Z" fill="#545454"/>
<path d="M78.8947 12.3158H77V18H78.8947V12.3158Z" fill="#545454"/>
<path d="M77.9474 10.8947C78.4706 10.8947 78.8947 10.4706 78.8947 9.94737C78.8947 9.42415 78.4706 9 77.9474 9C77.4242 9 77 9.42415 77 9.94737C77 10.4706 77.4242 10.8947 77.9474 10.8947Z" fill="#545454"/>
</g>
<defs>
<clipPath id="clip0_48_27">
<rect width="7" height="11" fill="white" transform="translate(45 8)"/>
</clipPath>
<clipPath id="clip1_48_27">
<rect width="10" height="9" fill="white" transform="translate(77 9)"/>
</clipPath>
</defs>
</svg>
